<svg version="1.2" xmlns="http://www.w3.org/2000/svg" viewBox="0 0 977 152" width="977" height="152"><style>.a{paint-order:stroke fill markers;stroke:#000;stroke-width: 2;stroke-linejoin: round;}</style><path class="a" d="m36.4 116v-97.7h71.2v9.3h-61.8v31.9h49.5v9.4h-49.5v37.8h66.4v9.3zm-3.5 0v-97.7h71.1v9.3h-61.7v31.9h49.5v9.4h-49.5v37.8h66.4v9.3zm100.9 0v-97.7h9.4v97.7zm-3.5 0v-97.7h9.4v97.7zm40.5 0v-69.2h9.4v69.2zm0-85.5v-11.2h9.4v11.2zm-3.5 85.5v-69.2h9.4v69.2zm0-85.5v-11.2h9.4v11.2zm35.6 25.1v-8.8h55.4v9.2l-47.1 50.9h49.1v9.1h-60.9v-9.5l47.3-50.9zm-3.5 0v-8.8h55.4v9.2l-47.1 50.9h49.1v9.1h-60.8v-9.5l47.2-50.9zm132.9 14.5v29.3q0 9.1 2 16.6h-9.6q-1.9-6.5-1.9-11.1-5.7 5.9-13.2 9.2-7.4 3.4-14.8 3.4-9.4 0-15.7-5.8-6.2-5.8-6.2-13 0-7.1 3.7-11.8 3.7-4.7 12.2-8.1 8.6-3.4 28.4-7.5l5.6-1.2v-4.3q0-5.7-4.8-9.3-4.7-3.6-10.8-3.6-11.7 0-25.8 11.6l-6.8-5.8q5.9-6.1 14.2-9.8 8.4-3.6 16.8-3.6 12.1 0 19.4 6.6 7.3 6.6 7.3 18.2zm-9.5 27v-19.9l-4.5 0.9q-0.7 0.2-2 0.4-16.1 3.3-21.8 5.7-5.7 2.5-8.4 6-2.7 3.4-2.7 8.4 0 4.4 4.2 7.5 4.2 3.1 9.8 3.1 10.9 0 25.4-12.1zm6-27v29.3q0 9.1 2 16.6h-9.6q-1.8-6.5-1.8-11.1-5.8 5.9-13.2 9.2-7.4 3.4-14.9 3.4-9.4 0-15.7-5.8-6.2-5.8-6.2-13 0-7.1 3.7-11.8 3.8-4.7 12.3-8.1 8.5-3.4 28.3-7.5l5.7-1.2v-4.3q0-5.7-4.9-9.3-4.7-3.6-10.8-3.6-11.7 0-25.7 11.6l-6.9-5.8q5.9-6.1 14.3-9.8 8.3-3.6 16.7-3.6 12.1 0 19.4 6.6 7.3 6.6 7.3 18.2zm-9.4 27v-19.9l-4.6 0.9q-0.6 0.2-1.9 0.4-16.1 3.3-21.9 5.7-5.7 2.5-8.4 6-2.7 3.4-2.7 8.4 0 4.4 4.2 7.5 4.2 3.1 9.8 3.1 10.9 0 25.5-12.1zm36.3 18.9v-97.7h9.4v37.3q10.1-10.3 20.7-10.3 12.5 0 20.4 10.1 7.8 10.2 7.8 25.9 0 16.1-7.8 26.1-7.9 10.1-20.7 10.1-4.8 0-9-1.8-4-1.8-9.3-6.8-1.4-1.4-2.1-2v9.1zm9.3-52.1v34.8q1 0.9 3 2.5 5.6 4.8 9.1 6.2 3.4 1.4 7.6 1.4 9.2 0 14.5-7.6 5.4-7.6 5.4-20.2 0-12.7-5.5-20-5.4-7.4-15.1-7.4-8 0-19 10.3zm-12.8 52.1v-97.7h9.3v37.3q10.2-10.3 20.8-10.3 12.5 0 20.3 10.1 7.9 10.2 7.9 25.9 0 16.1-7.9 26.1-7.8 10.1-20.7 10.1-4.8 0-8.9-1.8-4.1-1.8-9.3-6.8-1.5-1.4-2.2-2v9.1zm9.4-52.1v34.8q1 0.9 2.9 2.5 5.6 4.8 9.1 6.2 3.5 1.4 7.6 1.4 9.3 0 14.6-7.6 5.3-7.6 5.3-20.2 0-12.7-5.5-20-5.4-7.4-15-7.4-8.1 0-19 10.3zm129.5 18.3h-52.1q0.3 8.4 3.1 14.4 2.8 6 8 9.3 5.2 3.3 10.3 3.3 12.9 0 23-14.2l7.7 5.4q-5.7 7.6-13.7 12.2-7.9 4.6-16.3 4.6-8.3 0-15.9-4.6-7.6-4.7-11.6-12.7-4-8.1-4-18.9 0-10.5 4-18.4 4.1-8 11.7-12.6 7.6-4.7 15.4-4.7 8.2 0 15.6 4.7 7.5 4.7 10.9 12.1 3.5 7.4 3.9 20.1zm-51.7-8.4h41.8q-1-9.6-6.8-15.1-5.8-5.5-13.5-5.5-8.3 0-14.8 6.4-6.4 6.3-6.7 14.2zm48.2 8.4h-52.1q0.3 8.4 3.1 14.4 2.8 6 8 9.3 5.2 3.3 10.4 3.3 12.8 0 23-14.2l7.6 5.4q-5.7 7.6-13.7 12.2-7.9 4.6-16.2 4.6-8.4 0-16-4.6-7.6-4.7-11.6-12.7-4-8.1-4-18.9 0-10.5 4.1-18.4 4-8 11.6-12.6 7.6-4.7 15.4-4.7 8.2 0 15.6 4.7 7.5 4.7 10.9 12.1 3.5 7.4 3.9 20.1zm-51.7-8.4h41.8q-1-9.6-6.8-15.1-5.8-5.5-13.5-5.5-8.3 0-14.7 6.4-6.5 6.3-6.8 14.2zm79.7-27v-25.2h9.4v25.2h13.2v8.5h-13.2v43.1q0 5 2.7 8.1 2.7 3.2 7.7 3.2 1.6 0 2.6-0.5 0.8-0.3 1.5-0.5v8.3q-0.9 0.2-2 0.4-1.4 0.3-3.4 0.3-10 0-14.2-4.1-4.3-4.1-4.3-13.6v-44.7h-10.7v-8.5zm-3.4 0v-25.2h9.3v25.2h13.2v8.5h-13.2v43.1q0 5 2.7 8.1 2.7 3.2 7.7 3.2 1.6 0 2.6-0.5 0.8-0.3 1.6-0.5v8.3q-0.9 0.2-2 0.4-1.5 0.3-3.4 0.3-10 0-14.3-4.1-4.2-4.1-4.2-13.6v-44.7h-10.7v-8.5zm43.3 69.2v-97.7h9.3v36.1q11.9-5.9 16.9-7.5 5.2-1.6 9.9-1.6 8.9 0 13.9 6 5.1 6 5.1 17.1v47.6h-9.4v-49.7q0-12.3-11.9-12.3-10.5 0-24.5 8.5v53.5zm-3.5 0v-97.7h9.4v36.1q11.8-5.9 16.9-7.5 5.2-1.6 9.9-1.6 8.9 0 13.9 6 5.1 6 5.1 17.1v47.6h-9.4v-49.7q0-12.3-11.9-12.3-10.5 0-24.5 8.5v53.5zm128.2 0v-97.7h39.2q13.3 0 20.7 3.1 7.5 3.1 12.1 9.4 4.5 6.3 4.5 14.1 0 18.3-21.3 24.8l23.6 46.3h-10.2l-22.9-44.3h-36.3v44.3zm43.1-89.2h-33.7v36.4h30.2q12.7 0 19.5-4.7 6.9-4.7 6.9-13.7 0-8.4-6.1-13.1-6-4.9-16.8-4.9zm-46.6 89.2v-97.7h39.2q13.3 0 20.8 3.1 7.4 3.1 12 9.4 4.6 6.3 4.6 14.1 0 18.3-21.4 24.8l23.6 46.3h-10.2l-22.9-44.3h-36.2v44.3zm43-89.2h-33.6v36.4h30.2q12.6 0 19.4-4.7 6.9-4.7 6.9-13.7 0-8.4-6-13.1-6-4.9-16.9-4.9zm75.8 89.2l-26.2-69.2h9.7l21.3 56.5 21.5-56.5h9.7l-27.9 73.7q-4.4 11.7-7.7 15.8-3.2 4-8.1 5.9-4.7 1.9-11.9 1.9-3.8 0-9.1-1l2.5-9q3.1 0.6 6.6 0.6 5.2 0 8.4-1.2 3.3-1.3 5.5-4.2 2.1-2.9 4.5-10.1 0.5-1.6 1.2-3.2zm-3.5 0l-26.1-69.2h9.6l21.3 56.5 21.6-56.5h9.6l-27.9 73.7q-4.4 11.7-7.6 15.8-3.3 4-8.2 5.9-4.7 1.9-11.9 1.9-3.8 0-9.1-1l2.6-9q3 0.6 6.5 0.6 5.2 0 8.5-1.2 3.2-1.3 5.4-4.2 2.1-2.9 4.5-10.1 0.6-1.6 1.2-3.2zm57.7 0v-97.7h9.4v97.7zm-3.5 0v-97.7h9.4v97.7zm95.8-33.8h-52.1q0.3 8.4 3.1 14.4 2.8 6 8 9.3 5.2 3.3 10.4 3.3 12.8 0 22.9-14.2l7.7 5.4q-5.7 7.6-13.7 12.2-7.9 4.6-16.2 4.6-8.4 0-16-4.6-7.6-4.7-11.6-12.7-4-8.1-4-18.9 0-10.5 4.1-18.4 4-8 11.6-12.6 7.6-4.7 15.4-4.7 8.2 0 15.6 4.7 7.5 4.7 10.9 12.1 3.5 7.4 3.9 20.1zm-51.7-8.4h41.8q-1-9.6-6.8-15.1-5.8-5.5-13.5-5.5-8.3 0-14.7 6.4-6.5 6.3-6.8 14.2zm48.2 8.4h-52.1q0.3 8.4 3.1 14.4 2.9 6 8 9.3 5.2 3.3 10.4 3.3 12.8 0 23-14.2l7.6 5.4q-5.7 7.6-13.7 12.2-7.9 4.6-16.2 4.6-8.4 0-16-4.6-7.6-4.7-11.6-12.7-4-8.1-4-18.9 0-10.5 4.1-18.4 4-8 11.6-12.6 7.6-4.7 15.4-4.7 8.2 0 15.6 4.7 7.5 4.7 10.9 12.1 3.5 7.4 3.9 20.1zm-51.7-8.4h41.8q-0.9-9.6-6.8-15.1-5.8-5.5-13.5-5.5-8.3 0-14.7 6.4-6.5 6.3-6.8 14.2z"/></svg>